<?xml version="1.0" encoding="UTF-8"?>
<svg version="1.1" xmlns="http://www.w3.org/2000/svg" width="644" height="250">

<!-- الجزء الأزرق الأمامي لحرف V -->
<path d="M0 0 C13.53 0 27.06 0 41 0 C41 46.2 41 92.4 41 140 C5.6 140 5.6 140 -2.74 132.75 C-6.14 129.01 -9.19 125.01 -12.19 120.94 C-16.92 114.63 -21.81 108.55 -27.04 102.64 C-29.17 100.22 -31.12 97.82 -32.9 95.14 C-35.67 91 -38.81 87.25 -42 83.44 C-43.23 81.96 -44.46 80.48 -45.69 79 C-46.26 78.31 -46.84 77.62 -47.43 76.91 C-48.75 75.3 -50.04 73.67 -51.31 72.04 C-52.84 69.91 -52.84 69.91 -55 69 C-55 92.43 -55 115.86 -55 140 C-68.53 140 -82.06 140 -96 140 C-96 94.13 -96 48.26 -96 1 C-62 1 -62 1 -51 8 C-47.88 11.13 -47.88 11.13 -45.56 14.13 C-44.78 15.12 -44 16.11 -43.19 17.13 C-42.47 18.08 -41.75 19.03 -41 20 C-39.67 21.67 -38.33 23.33 -37 25 C-36.17 26.05 -35.35 27.11 -34.52 28.16 C-29.42 34.68 -24.28 41.15 -18.97 47.5 C-17 50 -17 50 -15.1 52.86 C-12.68 56.48 -10.07 59.89 -7.38 63.31 C-6.89 63.94 -6.4 64.58 -5.89 65.23 C-3.38 68.61 -3.38 68.61 0 71 C0 47.57 0 24.14 0 0 Z" fill="#3898D0" transform="translate(436,51)"/>

<!-- الجزء الأصفر الجانبي لحرف V -->
   <path d="M 227.8,51.8 
             C 238.7,47.8 254.3,47.6 264.3,54.8 
             C 269.5,58.8 272.3,63.2 274.5,69.4 
             C 276.3,74.3 278.3,78.6 281,83 
             C 282.9,86.6 284.6,90.3 286.2,94.1 
             C 286.8,95.5 287.4,96.9 288.1,98.3 
             C 289.9,102.2 291.5,105.7 292.1,110 
             L 294.1,110 
             C 295.5,113.3 296.9,116.6 298.3,119.9 
             C 300.3,124.8 302.3,129.4 305,133.9 
             C 307.2,138 308.8,142.3 310.6,146.5 
             C 312.3,150.4 314.1,154.1 316,157.8 
             C 317.5,160.8 318.8,163.9 320.1,167 
             C 320.9,168.6 321.7,170.1 322.5,171.7 
             C 330.1,186.8 330.1,186.8 330.1,191 
             L 284.1,191 
             C 283.1,188 282.1,185 281.1,181.9 
             C 280.4,180.4 279.7,178.9 278.9,177.4 
             C 277.1,173.9 277.1,173.9 277.1,171.9 
             L 229.1,171.9 
             C 229.1,166.2 230,165.4 233,160.9 
             C 233.9,158.7 234.6,156.5 235.3,154.2 
             C 236.4,150.7 237.7,147.3 239,143.9 
             L 241.1,143.9 
             C 240.9,142.7 240.9,142.7 241.1,141.6 
             C 241.7,138.8 241.7,138.8 243.6,133.8 
             L 259.6,133.8 
             C 257.4,128.9 255.3,124.1 253.1,119.2 
             C 250.2,112.8 247.5,106.7 246.6,99.7 
             L 242.6,99.7 
             C 241.1,103.4 239.8,107.2 238.5,111 
             C 238.2,112.1 237.8,113.2 237.5,114.3 
             C 237.2,115.1 236.9,115.9 236.6,116.7 
             L 234.6,116.7 
             C 234.4,118 234.1,119.3 233.9,120.6 
             C 232.9,125 231.2,128.3 228.9,132.2 
             C 226.8,136 225.3,140 223.7,144 
             C 222.6,146.6 222.6,146.6 220.6,149.6 
             C 220,151.7 219.4,153.9 218.9,156 
             C 217.2,162.1 215,167.4 212,172.9 
             C 210.6,175.5 210.6,175.5 209.6,178.2 
             C 208.6,180.5 208.6,180.5 206.6,182.5 
             C 205.9,184.8 205.2,187.2 204.6,189.5 
             L 201.8,190.6 
             C 201,190.6 200.2,190.6 199.4,190.6 
             C 198.5,190.6 197.6,190.6 196.7,190.6 
             C 195.7,190.6 194.7,190.6 193.7,190.6 
             C 192.7,190.6 191.7,190.6 190.7,190.6 
             C 187.5,190.6 184.3,190.6 181.1,190.6 
             C 178.9,190.6 176.8,190.6 174.6,190.6 
             L 158.7,190.6 
             C 159.3,187.1 160.2,184.1 161.7,180.8 
             C 162.1,180 162.5,179.2 162.9,178.4 
             C 163.1,177.8 163.4,177.2 163.7,176.6 
             L 165.6,176.6 
             C 165.7,175.2 165.7,175.2 165.8,173.8 
             C 166.4,169.1 168.7,165.4 171.1,161.4 
             C 172.9,158.2 174.2,154.9 175.6,151.6 
             C 177.4,148.1 179.1,144.6 180.9,141.1 
             C 182.1,138.7 183.2,136.3 184.3,133.8 
             C 185.7,130.6 185.7,130.6 187.7,128.6 
             C 188.8,125.8 189.7,122.9 190.7,120 
             C 191.7,117.6 191.7,117.6 193.7,116.6 
             C 194.6,114.3 194.6,114.3 195.3,111.6 
             C 196.6,106.7 196.6,106.7 197.7,104.6 
             L 199.7,104.6 
             C 199.9,103.4 200.1,102.1 200.3,100.9 
             C 201.4,95.7 203.6,91.4 206.1,86.7 
             C 207.6,83.9 208.9,81 210.3,78.1 
             C 210.7,77.2 211.1,76.3 211.5,75.4 
             C 212.3,73.5 213.1,71.7 213.9,69.8 
             C 217.1,62.3 220.7,56.2 227.8,51.8 
             Z" 
          fill="#F3C924"
          stroke="#F3C924"
          stroke-width="0.5"/>

<!-- الجزء الأخضر الجانبي الآخر لحرف V -->
<path d="M0 0 C14.52 0 29.04 0 44 0 C46.4 4.79 48.44 9 50.23 13.94 C52.29 19.44 54.83 24.71 57.5 29.94 C60.45 35.79 62.83 41.8 65.08 47.96 C67.69 55.02 70.72 61.7 74.23 68.36 C75.87 71.51 77.21 74.47 78.11 77.91 C78.55 79.44 78.55 79.44 79 81 C79.66 81.33 80.32 81.66 81 82 C81.09 80.82 81.09 80.82 81.19 79.63 C82.12 75.47 83.79 72.25 85.74 68.5 C87.11 65.78 88.17 63.05 89.19 60.19 C91.86 52.95 95.01 45.87 98.2 38.84 C99.1 36.83 99.1 36.83 100 34 C100.66 33.67 101.32 33.34 102 33 C102.77 30.66 102.77 30.66 103.38 27.88 C104.44 23.71 105.68 20.43 107.96 16.82 C110.09 13.09 111.47 9 113 5 C113.66 3.35 114.32 1.7 115 0 C129.52 0 144.04 0 159 0 C157.92 9.69 157.92 9.69 154 15 C152.93 17.33 151.94 19.62 151 22 C147.74 30.27 144.16 38.34 140.42 46.41 C139.89 47.55 139.36 48.7 138.81 49.88 C138.32 50.92 137.84 51.97 137.33 53.05 C136.53 54.84 135.75 56.64 135.02 58.46 C133.74 61.64 132.28 64.71 130.81 67.81 C127.96 73.88 125.23 79.99 122.56 86.14 C120.69 90.46 118.74 94.74 116.75 99 C115.19 102.34 113.71 105.64 112.5 109.13 C110.96 113.47 108.67 117.37 106.41 121.39 C105.25 123.53 104.27 125.61 103.38 127.88 C100.88 133.55 97.5 137.18 92.02 140.04 C83.65 142.7 73.14 142.54 65.13 138.88 C61.18 136.5 59.18 134 57 130 C56.34 129.67 55.68 129.34 55 129 C54.11 126.85 54.11 126.85 53.19 124.06 C51.87 120.26 50.43 116.7 48.56 113.13 C41 98.52 41 98.52 41 93 C40.34 93 39.68 93 39 93 C38.67 92.13 38.34 91.26 38.01 90.37 C37.57 89.21 37.14 88.06 36.69 86.88 C36.26 85.74 35.83 84.6 35.39 83.43 C34.08 80.19 32.59 77.11 31 74 C30.53 72.89 30.06 71.77 29.56 70.63 C28.15 67.34 26.61 64.17 24.96 60.99 C23.52 58 22.35 54.92 21.18 51.82 C18.96 46.04 16.31 40.54 13.5 35.03 C12 32.07 10.59 29.14 9.5 26 C8.13 22.03 6.25 18.31 4.38 14.56 C4.06 13.93 3.75 13.31 3.42 12.66 C2.01 9.63 2.01 9.63 0 7 C0 4.69 0 2.38 0 0 Z" fill="#5FB350" transform="translate(25,52)"/>

<path d="M0 0 C44.55 0 89.1 0 135 0 C135 12.54 135 25.08 135 38 C119.82 38 104.64 38 89 38 C89 71.33 89 104.66 89 139 C74.81 139 60.62 139 46 139 C46 105.67 46 72.34 46 38 C30.82 38 15.64 38 0 38 C0 25.46 0 12.92 0 0 Z" fill="#F3862B" transform="translate(492,52)"/>

</svg>